<svg width="68" height="68" viewBox="0 0 68 68" fill="none" xmlns="http://www.w3.org/2000/svg">
<g clip-path="url(#clip0_2_97)">
<path d="M66.6923 21.6202H51C50.4653 21.6202 49.9845 21.9713 49.7858 22.4678L46.1051 31.6827L43.1202 18.7555C42.9828 18.1593 42.4546 17.7435 41.8386 17.7451C41.2269 17.7486 40.6993 18.1774 40.5685 18.7749L33.239 52.2826L28.764 1.94002C28.7111 1.34621 28.2637 0.863571 27.676 0.765954C27.0874 0.669134 26.5084 0.954813 26.2665 1.49934L16.1501 24.2355H1.30767C0.58557 24.2355 0 24.8211 0 25.5432C0 26.2654 0.58557 26.8509 1.30767 26.8509H17C17.5168 26.8509 17.9851 26.5722 18.195 26.0999L26.6061 7.18784L31.3897 61.0114C31.4468 61.6548 31.965 62.1631 32.6095 62.2041C32.6376 62.2058 32.6654 62.2082 32.6931 62.2082C33.3034 62.2082 33.8378 61.7843 33.9698 61.1808L41.8803 25.0188L44.4951 36.3497C44.6235 36.9066 45.099 37.3157 45.6689 37.3595C46.2417 37.4039 46.7711 37.0465 46.9835 36.5158L51.8855 24.2354H66.6925C67.4147 24.2354 68.0001 23.6498 68.0001 22.9277C68 22.2057 67.4144 21.6202 66.6923 21.6202Z" fill="#E0CBA1"/>
</g>
<defs>
<clipPath id="clip0_2_97">
<rect width="68" height="68" fill="white"/>
</clipPath>
</defs>
</svg>
